<?xml version="1.0" encoding="UTF-8"?><svg id="Capa_2" xmlns="http://www.w3.org/2000/svg" viewBox="0 0 857.36 290.08"><defs><style>.cls-1{fill:#e78600;}.cls-2{fill:#ffde30;}</style></defs><g id="Original"><g id="Original-2"><path class="cls-1" d="M368.37,89.65c.89,6.34,7.6,10.83,16.66,10.83s14.57-3.67,14.57-9.5c0-4.5-2.47-7.03-11.72-9.88l-8.74-2.66c-15.21-4.69-23.19-12.67-23.19-25.15,0-17.87,15.4-29.71,36.68-29.71,22.43,0,36.62,10.64,36.68,28.38h-21.41c-.25-6.46-5.96-10.77-14.76-10.77s-13.56,4.18-13.56,9.25c0,4.5,3.1,7.48,11.34,9.88l9.06,2.72c16.16,4.75,23.38,11.78,23.38,24.58,0,18.06-15.21,30.54-38.77,30.54s-38.14-10.52-38.33-28.51h22.11Z"/><path class="cls-1" d="M428.86,98.83c0-14.13,11.72-22.81,30.85-23.38l16.34-.51.82-4.05c.19-1.08.25-1.65.25-2.28,0-3.99-3.74-6.59-9.57-6.59s-9.63,2.47-10.9,6.72h-20.02c2.6-13.94,15.21-22.81,32.44-22.81s29.33,8.43,29.33,20.78c0,1.84-.25,4.18-.51,5.64l-9.44,44.22h-21.1l1.77-8.17h-.44c-3.67,5.51-10.83,9.19-19.45,9.19-11.53,0-20.4-7.92-20.4-18.75ZM472.26,92.56l1.14-5.13-12.54.38c-6.65.25-10.96,3.29-10.96,7.92,0,4.05,3.67,6.72,9,6.72,6.46,0,12.16-4.18,13.37-9.88Z"/><path class="cls-1" d="M524.14,103.84h-.44l-2.72,12.73h-21.16l19.51-91.42h21.79l-7.03,32.5h.57c4.12-6.91,11.91-11.09,20.84-11.09,14.44,0,23.57,10.2,23.57,27.05,0,24.45-14.06,43.97-33.77,43.97-10.26,0-18.63-5.51-21.16-13.75ZM556.58,76.91c0-8.3-4.31-13.56-11.28-13.56-9.31,0-16.85,10.9-16.85,23.57,0,7.92,4.56,13.3,11.53,13.3,9.5,0,16.6-10.45,16.6-23.31Z"/><path class="cls-1" d="M657.94,77.04c0,23.82-16.73,41.18-39.91,41.18-19.39,0-32.37-12.48-32.37-31.11,0-23.82,16.73-41.18,39.91-41.18,19.39,0,32.37,12.54,32.37,31.11ZM635.7,77.48c0-8.74-4.37-14.57-11.09-14.57-9.76,0-16.85,10.14-16.85,23.76,0,8.74,4.37,14.57,11.15,14.57,9.57,0,16.79-10.33,16.79-23.76Z"/><path class="cls-1" d="M674.46,47.58h21.22l-1.96,9.82h.44c3.36-6.4,9.57-10.83,17.3-10.83,3.8,0,6.65.63,9.12,1.77l-4.18,19.07c-2.79-1.33-6.02-2.28-9.95-2.28-9,0-14.95,5-17.11,15.14l-7.79,36.3h-21.86l14.76-68.99Z"/><path class="cls-1" d="M717.98,86.86c0-23.38,15.27-40.93,37.95-40.93,18.25,0,30.6,11.66,30.6,29.65,0,3.55-.32,7.92-1.08,11.28h-47.58c-.13.7-.19,1.39-.19,2.09,0,7.79,4.88,13.43,12.92,13.43,6.34,0,11.02-3.23,12.67-8.05h20.34c-3.55,14.13-16.41,23.82-34.02,23.82-19.51,0-31.61-11.91-31.61-31.3ZM766.32,74.32c.13-.38.19-1.27.19-1.96,0-6.02-4.25-10.83-11.47-10.83s-13.24,5.32-15.14,12.8h26.42Z"/><path class="cls-1" d="M827.58,46c17.23,0,29.33,9.31,29.78,22.74h-19.64c-.32-4.75-4.5-8.05-10.45-8.05-5.64,0-9.19,2.41-9.19,6.02,0,3.04,2.09,4.62,9.12,6.97l7.35,2.41c13.05,4.37,18.06,9.63,18.06,18.88,0,13.94-12.48,23.25-31.3,23.25s-31.61-9.31-32.18-23.5h20.72c.44,5.13,5,8.68,12.1,8.68,5.58,0,9.06-2.41,9.06-6.08,0-2.85-2.03-4.31-8.74-6.59l-6.21-2.09c-12.8-4.24-18.69-10.52-18.69-20.02,0-13.62,11.91-22.62,30.22-22.62Z"/><path class="cls-1" d="M344.86,184.19c0-15.1,8.82-26.35,20.63-26.35,6.09,0,10.6,2.95,11.96,7.65h.3l4.35-20.44h13.02l-11.62,54.63h-12.76l1.29-5.98h-.26c-2.92,4.28-7.31,6.59-12.83,6.59-8.67,0-14.08-6.21-14.08-16.09ZM375.11,176.17c0-4.73-2.69-7.95-6.81-7.95-5.6,0-10.03,6.02-10.03,13.93,0,4.88,2.65,8.06,6.74,8.06,5.53,0,10.11-6.36,10.11-14.04Z"/><path class="cls-1" d="M393.71,181.92c0-13.97,9.12-24.46,22.68-24.46,10.9,0,18.28,6.97,18.28,17.72,0,2.12-.19,4.73-.64,6.74h-28.43c-.08.42-.11.83-.11,1.25,0,4.66,2.92,8.03,7.72,8.03,3.79,0,6.59-1.93,7.57-4.81h12.15c-2.12,8.44-9.8,14.23-20.33,14.23-11.66,0-18.89-7.12-18.89-18.7ZM422.59,174.43c.08-.23.11-.76.11-1.17,0-3.6-2.54-6.47-6.85-6.47s-7.91,3.18-9.05,7.65h15.79Z"/><path class="cls-1" d="M447.67,145.05h13.02l-11.62,54.63h-13.02l11.62-54.63Z"/><path class="cls-1" d="M498.6,179.4c1.8,0,3.27.69,4.44,2.06.84,1.16,1.27,2.33,1.27,3.49,0,1.9-1.53,5.07-4.6,9.51-10.99,17.02-18.81,31.02-23.46,42.01-4.97,11.31-9.35,22.93-13.16,34.88-1.69,5.29-4.33,7.93-7.93,7.93-2.11,0-3.8-.84-5.07-2.54-1.16-1.37-1.74-2.85-1.74-4.44,0-3.17,3.38-13.74,10.15-31.71,5.29-14.16,13.84-29.8,25.68-46.92,3.8-5.6,6.66-9.35,8.56-11.26,1.9-2.01,3.86-3.01,5.87-3.01Z"/><path class="cls-1" d="M572.63,169.09c6.55,0,11.47,1.16,14.74,3.49,3.27,2.33,4.91,5.87,4.91,10.62,0,6.24-2.33,12.26-6.98,18.07-4.44,5.5-11.1,9.94-19.97,13.32-4.86,1.8-8.93,2.7-12.21,2.7-4.44,0-6.66-1.95-6.66-5.87,0-2.64,1.27-4.65,3.8-6.02.63-.32,4.23-1.21,10.78-2.7,3.91-.84,7.5-2.69,10.78-5.55,2.85-2.43,4.28-5.07,4.28-7.93,0-2.22-.63-3.86-1.9-4.91-1.27-1.06-3.17-1.59-5.71-1.59-6.13,0-12.9,2.48-20.29,7.45-8.56,5.6-12.84,12.26-12.84,19.97,0,5.5,2.8,12.36,8.4,20.61,6.23,8.98,9.35,16.59,9.35,22.83,0,9.3-4.12,16.59-12.36,21.88-5.07,3.28-10.83,4.91-17.28,4.91-10.15,0-17.86-3.65-23.15-10.94-3.7-5.18-5.55-11.31-5.55-18.39,0-8.24,2.12-15.16,6.34-20.77,2.75-3.7,5.6-5.55,8.56-5.55,2.64,0,3.96,1.06,3.96,3.17,0,.85-.48,2.12-1.43,3.8-2.43,4.55-3.65,9.88-3.65,16.01,0,5.18,1.85,9.57,5.55,13.16,3.27,3.17,7.03,4.76,11.26,4.76s7.34-1.37,9.67-4.12c1.9-2.32,2.85-5.28,2.85-8.88,0-4.44-2.54-10.2-7.61-17.28-6.98-9.72-10.46-18.55-10.46-26.47,0-10.57,5.76-19.92,17.28-28.06,11.2-7.82,23.04-11.73,35.51-11.73Z"/><path class="cls-1" d="M640.48,183.94c-6.87,9.46-13.21,20.04-19.02,31.74-8.35,16.67-12.52,29.12-12.52,37.36,0,2.34.56,4.12,1.66,5.34,1.11,1.22,2.77,1.83,4.99,1.83,5.28,0,11.68-4.4,19.18-13.2,4.76-5.43,8.98-10.86,12.68-16.29,2.01-3.09,4.17-4.64,6.5-4.64,1.37,0,2.54.42,3.49,1.26.84.84,1.27,1.69,1.27,2.53,0,3.47-5.13,11.19-15.38,23.17-12.26,14.42-23.46,21.63-33.61,21.63-5.39,0-9.88-2.2-13.48-6.6-2.22-2.81-3.33-6.79-3.33-11.94,0-11.33,3.7-24.53,11.1-39.61,1.8-3.74,6.76-12.78,14.9-27.11-2.85.66-5.02.98-6.5.98-2.22,0-4.18-.47-5.87-1.4-2.33-1.31-3.49-2.95-3.49-4.92,0-2.34,1.53-4.21,4.6-5.62.84-.37,4.76-.98,11.73-1.83,2.54-.37,6.23-1.26,11.1-2.67,3.7-5.9,9.72-13.9,18.07-24.02,4.65-5.62,7.87-9.27,9.67-10.96,2.54-2.34,4.76-3.51,6.66-3.51,1.37,0,2.75.66,4.12,1.97,1.27,1.22,1.9,2.44,1.9,3.65,0,2.44-2.96,7.26-8.88,14.47-3.91,4.68-6.82,8.48-8.72,11.38,11.73-2.81,20.13-4.21,25.21-4.21,5.81,0,8.72,2.15,8.72,6.46,0,2.16-1.01,3.75-3.01,4.78-1.06.56-3.8,1.03-8.24,1.4-1.8-.09-9.78,1.69-23.94,5.34-3.91,1.03-7.77,2.11-11.57,3.23Z"/><path class="cls-1" d="M688.99,221.57c8.88-9.3,16.7-16.59,23.46-21.88,10.25-7.93,17.12-11.89,20.61-11.89,1.69,0,3.17.63,4.44,1.9,1.16,1.16,1.74,2.43,1.74,3.8,0,2.01-1.85,5.29-5.55,9.83-5.71,7.19-9.67,13.32-11.89,18.39,24.73-24.83,41.64-37.25,50.73-37.25,1.9,0,3.54.58,4.91,1.74,1.48,1.27,2.22,2.85,2.22,4.76,0,2.96-2.27,6.76-6.82,11.41-19.97,20.61-29.96,37.52-29.96,50.73,0,5.39.95,9.25,2.85,11.57l4.12,5.23c.84.95,1.27,2.17,1.27,3.65,0,1.69-.69,3.28-2.06,4.76-1.59,1.69-3.38,2.54-5.39,2.54-3.49,0-6.71-2.22-9.67-6.66-3.59-5.28-5.39-11.52-5.39-18.71,0-9.62,2.75-19.34,8.24-29.17,1.9-3.49,5.07-8.14,9.51-13.95-8.98,6.76-18.13,16.07-27.43,27.9-6.34,8.03-12.05,17.02-17.12,26.95-2.43,4.76-5.29,7.13-8.56,7.13-3.59,0-5.39-2.01-5.39-6.02,0-4.33,2.96-13.26,8.88-26.79,3.38-7.71,7.56-15.85,12.52-24.41-18.07,13.95-31.65,32.87-40.74,56.75-2.22,5.29-5.18,7.93-8.88,7.93-1.69,0-3.06-.63-4.12-1.9-1.16-1.27-1.74-2.8-1.74-4.6,0-6.23,3.49-17.49,10.46-33.77,7.29-17.23,15.54-32.71,24.73-46.45,6.34-9.62,11.26-14.43,14.74-14.43,3.17,0,4.76,1.69,4.76,5.07,0,1.48-1.96,5.18-5.87,11.1-6.87,11.1-11.41,19.34-13.63,24.73Z"/><path class="cls-1" d="M838.17,172.1c8.66,0,13,5.29,13,15.85,0,14.06-6.5,31.86-19.5,53.42-14.16,23.36-27.85,35.03-41.06,35.03-6.13,0-10.62-2.85-13.47-8.56-1.48-2.85-2.22-6.29-2.22-10.3,0-13.53,4.65-28.22,13.95-44.07,8.66-14.69,18.87-26.1,30.6-34.24,6.87-4.76,13.1-7.13,18.71-7.13ZM821.68,232.03c-2.64-2.11-3.96-3.75-3.96-4.91,0-.84,1.69-3.17,5.07-6.97,9.51-10.67,14.27-19.29,14.27-25.84,0-.84-.27-1.69-.79-2.54-.85-1.59-2.17-2.38-3.96-2.38-3.38,0-8.35,3.28-14.9,9.83-8.46,8.46-14.9,17.18-19.34,26.16-5.18,10.25-7.77,18.76-7.77,25.52,0,1.8.48,3.38,1.43,4.76,1.37,1.9,3.12,2.85,5.23,2.85,5.07,0,10.52-3.8,16.33-11.41,2.54-3.17,4.6-6.44,6.18-9.83,1.59-3.38,2.32-5.12,2.22-5.23Z"/><path class="cls-2" d="M523.81,135.49c4.76,0,7.13,2.43,7.13,7.29,0,4.44-2.33,9.35-6.97,14.74-4.44,5.18-8.72,7.77-12.84,7.77-2.01,0-3.65-.74-4.91-2.22-1.27-1.37-1.9-3.06-1.9-5.07,0-5.07,2.8-10.46,8.4-16.17,4.12-4.23,7.82-6.34,11.1-6.34Z"/><path class="cls-1" d="M151.12,290.08c-35.06,0-68.05-12.03-95.39-34.8-26.43-22-45.36-52.89-53.31-86.98-1.35-5.78,2.24-11.55,8.02-12.9,5.77-1.35,11.55,2.24,12.9,8.02,6.9,29.56,23.28,56.32,46.14,75.35,23.44,19.51,51.67,29.83,81.65,29.83s58.21-10.31,81.65-29.83c22.86-19.03,39.24-45.79,46.14-75.35,1.35-5.78,7.12-9.37,12.9-8.02,5.78,1.35,9.37,7.12,8.02,12.9-7.95,34.09-26.89,64.98-53.31,86.98-27.35,22.77-60.33,34.8-95.39,34.8Z"/><path class="cls-1" d="M289.52,110.32h-9.87C267.72,46.79,213.92,0,150.91,0S34.11,46.79,22.17,110.32h-11.43c-5.93,0-10.74,4.81-10.74,10.74s4.81,10.74,10.74,10.74h20.64s.01,0,.02,0c0,0,.02,0,.02,0l4.45-.02,3.15-3.17c.25-.25,25.62-25.47,65.87-37.75,23.28-7.1,47.03-8.57,70.59-4.35,29.71,5.32,59.39,19.76,88.22,42.92l2.95,2.37h22.87c5.93,0,10.74-4.81,10.74-10.74s-4.81-10.74-10.74-10.74ZM68.29,60.95l14.99,14.8c-13.45,5.42-24.93,11.83-34.11,17.81,4.64-12.04,11.14-23.03,19.12-32.61ZM91.45,69.06l-16.07-15.86c4.98-4.96,10.39-9.43,16.16-13.34l-.1,29.21ZM136.31,36.4l7.49,26.37c-3.86.12-7.72.38-11.57.76l4.08-27.13ZM122.3,58.97l-15.48-27.75c6.61-3.06,13.54-5.44,20.72-7.09l-5.24,34.84ZM173.69,64.46c-4.18-.61-8.36-1.04-12.54-1.34l8.57-26.73,3.97,28.07ZM178.74,25.25c5.63,1.55,11.09,3.57,16.34,6l-11.71,26.71-4.63-32.71ZM199.89,46.43l1.55,24.41c-3.63-1.14-7.26-2.17-10.9-3.07l9.35-21.34ZM253.4,95.56c-10.57-6.78-21.25-12.55-32.01-17.25l14.25-14.74c7.44,9.49,13.48,20.26,17.75,32ZM228.77,55.58l-16.69,17.26-2.11-33.19c6.8,4.58,13.11,9.92,18.79,15.93ZM163.23,22.21l-10.62,33.14-9.54-33.58c2.59-.19,5.2-.29,7.84-.29,4.16,0,8.27.25,12.32.73ZM101.94,69.34l.08-25.16,12.33,22.11c-4.15.86-8.29,1.88-12.42,3.05Z"/><path class="cls-2" d="M101.86,156.44l-42.95,1.28c-7.07.21-12.42,6.55-11.32,13.54,1.91,12.11,5.89,23.54,11.57,33.89,3.71,6.75,12.79,8.19,18.41,2.92l32.83-30.77c3.24-3.03,4.47-7.62,3.26-11.89-.02-.07-.04-.13-.05-.2-1.46-5.29-6.27-8.94-11.76-8.78Z"/><path class="cls-2" d="M119.17,193.43l-26.8,28.45c-6.06,6.44-4.72,16.78,2.75,21.51,9.02,5.71,18.98,10.07,29.59,12.82,8.73,2.26,17.3-4.11,17.6-13.12l1.28-39.5c.18-5.71-3.11-10.96-8.33-13.28-.06-.03-.11-.05-.17-.08-5.43-2.45-11.82-1.13-15.91,3.2Z"/><path class="cls-2" d="M161.31,201.64l1.24,41.67c.26,8.57,8.48,14.67,16.73,12.36,11.08-3.1,21.42-7.98,30.69-14.32,6.7-4.58,7.75-14.05,2.2-19.98l-27.56-29.4c-4.08-4.35-10.54-5.38-15.84-2.64-.05.03-.11.06-.16.08-4.59,2.34-7.46,7.07-7.31,12.22Z"/><path class="cls-2" d="M191.73,174.4l34.74,32.73c5.1,4.8,13.4,3.51,16.72-2.65,5.77-10.7,9.74-22.52,11.48-35.05.88-6.31-3.89-11.99-10.25-12.2l-44.98-1.45c-5.05-.16-9.56,3.22-10.73,8.13-.01.05-.02.09-.03.14-.91,3.75.24,7.71,3.05,10.35Z"/></g></g></svg>